<svg xmlns="http://www.w3.org/2000/svg" xmlns:xlink="http://www.w3.org/1999/xlink" viewBox="0 0 21.41 21.644">
  <defs>
    <style>
      .cls-1 {
        fill: #8c8c8c;
      }

      .cls-2 {
        clip-path: url(#clip-path);
      }
    </style>
    <clipPath id="clip-path">
      <rect id="Rectangle_1488" data-name="Rectangle 1488" class="cls-1" width="21.41" height="21.644"/>
    </clipPath>
  </defs>
  <g id="Group_252" data-name="Group 252" transform="translate(0 -0.1)">
    <g id="Group_143" data-name="Group 143" transform="translate(0 0.1)">
      <g id="Group_142" data-name="Group 142" class="cls-2" transform="translate(0 0)">
        <path id="Path_86" data-name="Path 86" class="cls-1" d="M21.354,10.049H20.315V5.29a2.069,2.069,0,0,0-2.069-2.069h-1.4L15.412.644A1.231,1.231,0,0,0,14.325,0a1.318,1.318,0,0,0-.6.153L8.213,3.213H2.069A2.081,2.081,0,0,0,0,5.29V19.5a2.069,2.069,0,0,0,2.069,2.069H18.246A2.069,2.069,0,0,0,20.315,19.5V15.331h1.039V10.049Zm-3.1-6.007a1.245,1.245,0,0,1,1.232,1.1H17.932l-.62-1.1ZM14.131.878a.419.419,0,0,1,.564.161l2.287,4.107H6.45ZM19.494,19.5a1.241,1.241,0,0,1-1.24,1.24H2.069A1.241,1.241,0,0,1,.829,19.5V5.29a1.241,1.241,0,0,1,1.24-1.24H6.732l-1.989,1.1H2.327a.411.411,0,1,0,0,.821H19.494v4.074H16.466A2.553,2.553,0,0,0,13.914,12.6v.177a2.553,2.553,0,0,0,2.553,2.553h3.028Zm1.031-5H16.458a1.725,1.725,0,0,1-1.723-1.723V12.6a1.725,1.725,0,0,1,1.723-1.723h4.066Zm-2.794-1.78a.918.918,0,1,1-.918-.918.918.918,0,0,1,.918.918Zm0,0" transform="translate(0 -0.008)"/>
      </g>
    </g>
  </g>
</svg>
