<svg xmlns="http://www.w3.org/2000/svg" viewBox="0 0 22 22">
  <defs>
    <style>
      .cls-1 {
        fill: #8c8c8c;
        fill-rule: evenodd;
      }
    </style>
  </defs>
  <path id="Account-Icon" class="cls-1" d="M11,22A11,11,0,1,0,0,11,11,11,0,0,0,11,22Zm0-.88A10.12,10.12,0,1,1,21.12,11,10.12,10.12,0,0,1,11,21.12Zm0,0h0V2.86a4.941,4.941,0,0,0-1.54.22,4.544,4.544,0,0,0-1.54.88C6.16,5.28,7.04,8.8,7.04,8.8c-.1.1-.119.117-.22.22a.941.941,0,0,0-.22.66,1.693,1.693,0,0,0,.66,1.1A6.752,6.752,0,0,0,8.8,14.74a2.79,2.79,0,0,1-.44,2.64s-2.757.746-3.96,1.1a7.615,7.615,0,0,0,1.32,1.1,13.541,13.541,0,0,0,1.76.88,11.074,11.074,0,0,0,1.711.426A12.169,12.169,0,0,0,11,21.12h0V2.86a4.941,4.941,0,0,1,1.54.22,4.544,4.544,0,0,1,1.54.88c1.76,1.32.88,4.84.88,4.84.1.1.119.117.22.22a.941.941,0,0,1,.22.66,1.693,1.693,0,0,1-.66,1.1,6.752,6.752,0,0,1-1.54,3.96,2.79,2.79,0,0,0,.44,2.64s2.757.746,3.96,1.1a7.615,7.615,0,0,1-1.32,1.1,13.541,13.541,0,0,1-1.76.88,11.074,11.074,0,0,1-1.711.426A12.167,12.167,0,0,1,11,21.12Z"/>
</svg>
