<svg id="Group_253" data-name="Group 253" xmlns="http://www.w3.org/2000/svg" viewBox="0 0 22.004 22">
  <defs>
    <style>
      .cls-1 {
        fill: #8c8c8c;
      }
    </style>
  </defs>
  <path id="Path_87" data-name="Path 87" class="cls-1" d="M22,.688V0H20.715V.688a3.275,3.275,0,0,1-2.742,3.223H4.031A3.275,3.275,0,0,1,1.289.688V0H0V.688A4.552,4.552,0,0,0,1.745,4.272,3.223,3.223,0,0,0,0,7.134V9.111H1.977a3.209,3.209,0,0,0,2.123-.8l.481,9.412A4.509,4.509,0,0,0,9.09,22h3.825a4.515,4.515,0,0,0,4.508-4.281L17.9,8.307a3.209,3.209,0,0,0,2.123.8H22V7.134a3.223,3.223,0,0,0-1.745-2.862A4.552,4.552,0,0,0,22,.688ZM16.77,5.2l-.494,9.648a8.372,8.372,0,0,0-10.547,0L5.235,5.2ZM3.911,5.888A1.937,1.937,0,0,1,1.977,7.822H1.289V7.134A1.937,1.937,0,0,1,3.223,5.2h.688Zm9,14.827H9.09a3.221,3.221,0,0,1-3.219-3.06l-.056-1.13a7.087,7.087,0,0,1,10.375,0l-.056,1.13A3.226,3.226,0,0,1,12.915,20.715Zm7.8-12.893h-.688a1.937,1.937,0,0,1-1.934-1.934V5.2h.688a1.937,1.937,0,0,1,1.934,1.934Z"/>
  <circle id="Ellipse_1" data-name="Ellipse 1" class="cls-1" cx="0.86" cy="0.86" r="0.86" transform="translate(7.994 17.707)"/>
  <circle id="Ellipse_2" data-name="Ellipse 2" class="cls-1" cx="0.86" cy="0.86" r="0.86" transform="translate(12.291 17.707)"/>
  <circle id="Ellipse_3" data-name="Ellipse 3" class="cls-1" cx="0.86" cy="0.86" r="0.86" transform="translate(6.704 8.853)"/>
  <circle id="Ellipse_4" data-name="Ellipse 4" class="cls-1" cx="0.86" cy="0.86" r="0.86" transform="translate(13.581 8.853)"/>
</svg>
