<svg xmlns="http://www.w3.org/2000/svg" viewBox="0 0 24.285 21.644">
  <defs>
    <style>
      .cls-1 {
        fill: #8c8c8c;
      }
    </style>
  </defs>
  <g id="Group_251" data-name="Group 251" transform="translate(0.036 -0.05)">
    <path id="Path_84" data-name="Path 84" class="cls-1" d="M23.993,8.6,12.482.171a.634.634,0,0,0-.745,0L.222,8.6a.631.631,0,1,0,.745,1.02L12.107,1.461,23.243,9.614a.641.641,0,0,0,.37.123.631.631,0,0,0,.507-.256A.624.624,0,0,0,23.993,8.6Z" transform="translate(0 0)"/>
    <path id="Path_85" data-name="Path 85" class="cls-1" d="M74.793,204.7a.634.634,0,0,0-.631.631v10.041H69.116v-5.478a3.154,3.154,0,1,0-6.308,0v5.483H57.762V205.331a.631.631,0,1,0-1.262,0v10.676a.634.634,0,0,0,.631.631h6.308a.635.635,0,0,0,.631-.583c0-.014,0-.033,0-.047v-6.113a1.892,1.892,0,1,1,3.785,0v6.113a.146.146,0,0,0,0,.047.632.632,0,0,0,.631.583H74.8a.634.634,0,0,0,.631-.631V205.331A.645.645,0,0,0,74.793,204.7Z" transform="translate(-53.855 -194.944)"/>
  </g>
</svg>
